<svg id="artboard-1" xmlns="http://www.w3.org/2000/svg" xmlns:xlink="http://www.w3.org/1999/xlink" viewBox="0 0 841.890000 595.280000" shape-rendering="geometricPrecision" text-rendering="geometricPrecision"><style><![CDATA[#artboard-1-g1_to {animation: artboard-1-g1_to__to 3000ms linear infinite normal forwards}@keyframes artboard-1-g1_to__to { 0% {transform: translate(398.404999px,113.005005px)} 50% {transform: translate(398.540001px,187.894998px)} 100% {transform: translate(398.540001px,187.894998px)} }#artboard-1-g1 {animation: artboard-1-g1_c_o 3000ms linear infinite normal forwards}@keyframes artboard-1-g1_c_o { 0% {opacity: 1} 20% {opacity: 1} 50% {opacity: 0} 100% {opacity: 0} }]]></style><g id="artboard-1-layer-4"><path id="artboard-1-path1" d="M33.060000,484.690000L33.060000,555.160000L94.430000,555.160000L144.900000,557.340000L206.280000,557.340000L253.630000,555.160000L266.720000,548.930000L327.160000,542.700000L340.870000,543.010000L407.540000,539.010000L465.490000,534.330000L499.760000,533.710000L567.360000,524.710000L582.360000,491.370000L582.360000,479.140000C588.530000,474.590000,593.360000,465.250000,597.900000,454.790000" fill="rgb(108,171,195)" stroke="none" stroke-width="1"/><path id="artboard-1-path2" d="M579.290000,499.440000L591.900000,504.090000L604.900000,507.640000L643.340000,507.640000L692.430000,506.060000L730,506.060000L755.430000,501.130000L756.910000,489.890000L760.460000,489.890000L759.550000,438.600000L748.550000,439.120000C738.490000,446.220000,727.020000,446.880000,714.550000,442.790000L696.220000,450.640000C684.220000,451.920000,669.620000,447.870000,653.270000,440.170000L569.460000,436.500000C582.020000,440.450000,592.460000,445.570000,599.070000,452.890000C593.160000,466.160000,587.530000,475.660000,582.360000,479.140000L582.360000,491.290000Z" fill="rgb(81,142,167)" stroke="none" stroke-width="1"/><path id="artboard-1-path3" d="M203,490.550000L216.700000,508.050000C221.330000,513.840000,224.790000,519.710000,225.910000,525.780000L222.500000,543.520000C227.580000,537.940000,231.500000,531.990000,233.750000,525.440000C234.960000,517.440000,229.890000,502.830000,225.090000,488.510000Z" fill="rgb(77,133,153)" stroke="none" stroke-width="1"/><path id="artboard-1-path4" d="M427.080000,468.450000Q432.770000,478.300000,449.640000,483.880000C466.850000,481.950000,481.880000,475.270000,496.040000,466.690000Z" fill="rgb(120,187,214)" stroke="none" stroke-width="1"/><path id="artboard-1-path5" d="M457.890000,482.560000C454.550000,488.820000,452.990000,494.780000,454.210000,500.260000C456.678965,511.981593,460.462910,523.387103,465.490000,534.260000L496.040000,533.710000C492.230689,523.968478,489.859176,513.724487,489,503.300000C487.110000,494.070000,490.910000,480.850000,496.080000,466.690000C483.520000,474.420000,470.810000,479.850000,457.890000,482.560000Z" fill="rgb(81,142,167)" stroke="none" stroke-width="1"/><path id="artboard-1-path6" d="M406.520000,468.450000C384.520000,492.930000,390.770000,516.120000,411.520000,538.640000L333.790000,542.850000C338.510000,517.220000,338.320000,493.530000,333.790000,472.670000L343.140000,470.020000L370.900000,476.310000Z" fill="rgb(81,142,167)" stroke="none" stroke-width="1"/><polygon id="artboard-1-polygon1" points="543.830000,460.230000 552.310000,472.070000 555.260000,498.110000 562.660000,458.750000 548.470000,457.980000 543.830000,460.230000" fill="rgb(77,133,153)" stroke="none" stroke-width="1"/><polygon id="artboard-1-polygon2" points="614.230000,438.640000 602.190000,460.520000 604.910000,507.640000 645.440000,507.640000 657.240000,468.630000 641.990000,439.680000 614.230000,438.640000" fill="rgb(120,166,188)" stroke="none" stroke-width="1"/><polygon id="artboard-1-polygon3" points="729.480000,445.300000 733.910000,463.710000 731.700000,481.400000 743.990000,456.090000 742.020000,443.560000 729.480000,445.300000" fill="rgb(77,133,153)" stroke="none" stroke-width="1"/><polygon id="artboard-1-polygon4" points="63.500000,487.050000 62.350000,555.160000 78.190000,555.160000 87.130000,521.110000 93.820000,490.450000 73.390000,493.070000 63.500000,487.050000" fill="rgb(81,142,167)" stroke="none" stroke-width="1"/><path id="artboard-1-path7" d="M33.060000,484.690000L33.060000,346.410000L70.250000,337C77.810000,334.900000,85.110000,330.680000,92.250000,325C112.061748,322.299732,132.148252,322.299732,151.960000,325L264.580000,351.180000C264.580000,351.180000,281.780000,349.100000,285.530000,350.660000C289.280000,352.220000,289.720000,357.470000,289.720000,357.470000L352.570000,364.280000L384.520000,365.280000L478.800000,382L587.800000,395.090000C593.570000,386.990000,606.390000,381.630000,624.630000,379.090000C663.120000,385.370000,684.070000,392.670000,699.370000,404.790000C703.950000,403.900000,706.270000,400.980000,711.370000,402.440000C716.470000,403.900000,721.370000,410.290000,721.370000,410.290000L759.600000,423.910000C764.950000,428.630000,762.340000,437.230000,759.600000,438.580000L748.600000,439.100000C745.850000,442.100000,741.600000,444.100000,736.030000,444.860000C727.680000,445.560000,720.500000,444.860000,714.560000,442.770000L696.230000,450.620000C685.950000,450.740000,676.710000,449.710000,669.510000,446.430000L653.280000,440.150000L569.470000,436.480000C581.210000,440.920000,592.820000,445.400000,598.800000,451.670000C601.390000,456.950000,586.410000,458.360000,567.900000,459.010000L548.520000,458.010000C540.822152,462.014187,532.494917,464.669296,523.900000,465.860000L439,468.450000L406.520000,468.450000L370.900000,476.310000L343.140000,470L290.240000,477.340000L240,487.310000L207.520000,489.930000L185,493.070000L133.140000,496.740000L119.530000,492.550000L105.910000,494.120000L93.860000,490.450000L73.430000,493.070000L61.430000,485.740000Z" fill="rgb(237,241,245)" stroke="rgb(219,231,242)" stroke-width="1" stroke-miterlimit="10"/></g><g id="artboard-1-layer-2"><path id="artboard-1-path8" d="M197.890000,225.680000C198.890000,199.930000,204.210000,176.390000,226.110000,161.450000C244.730000,149.710000,263.890000,150.990000,283.520000,163.450000C310.600000,185.380000,313.200000,210.450000,311.740000,236.110000C334.140000,265.250000,358.970000,295.640000,355.210000,311.360000C343.570000,308.860000,329.990000,298.510000,315.630000,285.090000C334.690000,333.390000,331.900000,363.420000,316.280000,382.720000C324.480000,361.180000,305.340000,260.960000,287.090000,195.560000C277.030000,173.830000,257.790000,179.560000,252.700000,197.830000L244.270000,197.830000C241.360000,178.370000,225.440000,175.830000,213.700000,201.400000C212.390000,229.180000,207.830000,252.590000,199.180000,270.490000C179.860000,311,161.910000,350,166.100000,363.860000C156.990000,344.540000,154.620000,320.090000,178.750000,275.510000C168.560000,284.320000,156.020000,290.170000,141.450000,293.510000C148.410000,266.740000,164.730000,243.280000,197.890000,225.680000Z" fill="rgb(33,12,14)" stroke="none" stroke-width="1"/><path id="artboard-1-path9" d="M166.100000,363.860000C183.510000,390.860000,208.560000,404.800000,239.400000,405.680000C275.660000,405.910000,303.140000,395.680000,316.280000,382.680000C323.670000,353.040000,307.050000,277.680000,287.280000,196.300000C276.700000,172,256.560000,182.740000,252.680000,197.790000L244.250000,197.790000C240.530000,178.480000,225.140000,176.420000,213.680000,201.360000C212.680000,233.810000,203.890000,264.360000,191.500000,286.640000C179.800000,313.370000,165.520000,337.740000,166.100000,363.860000Z" transform="matrix(1 0 0 1 -0.00288962999997 -2.11234614000000)" fill="rgb(225,223,194)" stroke="none" stroke-width="1"/><path id="artboard-1-path10" d="M184.480000,385.230000L167.120000,393.050000C162.430000,396.860000,161.370000,399.970000,168.830000,401.410000L176.680000,401.410000L177.880000,408.410000C177.620000,415.120000,180.270000,417.300000,186.070000,414.560000L194.610000,412.510000L198.880000,416.610000C203.110000,425.470000,206.180000,421.980000,208.950000,415.240000L210.050000,400.240000C200.690428,396.821310,192.027316,391.735924,184.480000,385.230000Z" fill="rgb(233,139,47)" stroke="none" stroke-width="1"/><path id="artboard-1-path11" d="M261.050000,404.510000C270.620000,410.050000,279.690000,414.560000,310.050000,414.990000C310.722312,415.022192,311.395776,414.958213,312.050000,414.800000C314.040988,414.254563,315.303121,412.298903,314.980000,410.260000L314.570000,407.400000L318.830000,408.470000C324.410000,409.390000,328.120000,407.470000,318.830000,404.080000L321.830000,402.450000C324.130000,400.890000,323.140000,399.260000,318.940000,397.560000L298.550000,394.460000C286.649365,399.741641,273.996942,403.132490,261.050000,404.510000Z" fill="rgb(233,139,47)" stroke="none" stroke-width="1"/><path id="artboard-1-path12" d="M262.600000,197.780000C263.720000,194.680000,265.380000,191.990000,269.600000,191.700000C273.480000,191.700000,275.810000,193.700000,276.820000,197.780000" fill="none" stroke="rgb(35,31,32)" stroke-width="1" stroke-miterlimit="10"/><path id="artboard-1-path13" d="M223.080000,197.780000C224.210000,194.680000,225.870000,191.990000,230.080000,191.700000C233.960000,191.700000,236.290000,193.700000,237.310000,197.780000" fill="none" stroke="rgb(35,31,32)" stroke-width="1" stroke-miterlimit="10"/><ellipse id="artboard-1-ellipse1" rx="5.390000" ry="4.590000" transform="matrix(1 0 0 1 283.25000000000000 209.37000000000000)" fill="rgb(192,150,137)" stroke="none" stroke-width="1"/><ellipse id="artboard-1-ellipse2" rx="5" ry="4.590000" transform="matrix(1 0 0 1 218.69999999999999 209.37000000000000)" fill="rgb(192,150,137)" stroke="none" stroke-width="1"/><path id="artboard-1-path14" d="M239.760000,202.250000C240.905554,200.437791,242.447658,198.909364,244.270000,197.780000L252.700000,197.780000C254.060000,199.910000,254.990000,201.880000,254.450000,203.290000C252.380000,205.010000,249.580000,205.850000,246.070000,205.810000C243.567180,205.539755,241.285521,204.252479,239.760000,202.250000Z" fill="rgb(216,182,62)" stroke="none" stroke-width="1"/><path id="artboard-1-path15" d="M239.760000,202.250000L239.760000,205.560000C240.323768,207.366634,241.729417,208.787196,243.530000,209.370000C245.987243,210.186748,248.642757,210.186748,251.100000,209.370000C252.802685,208.678043,254.215188,207.420915,255.100000,205.810000L254.490000,203.290000C248.490000,206.900000,243.530000,206.790000,239.760000,202.250000Z" fill="rgb(234,196,72)" stroke="none" stroke-width="1"/><path id="artboard-1-path16" d="M166.080000,356.430000C186.220000,379.100000,209.370000,393.270000,236.840000,395.330000C267.450000,396.240000,294.840000,390.640000,317.510000,375.550000L317.230000,381.470000C296.160000,400.700000,267.360000,405.960000,235.510000,405.680000C205.820000,404,183.220000,389,166.100000,363.860000Z" fill="rgb(194,192,168)" stroke="none" stroke-width="1"/></g><g id="artboard-1-layer-3"><path id="artboard-1-path17" d="M380.120000,420C384.840000,407.710000,398.820000,400,427.440000,399.570000C448.440000,399.350000,496.180000,414.140000,494.890000,418.190000C493.950000,421.190000,457.190000,428.800000,432.450000,429.800000C404,431.210000,384.900000,428.650000,380.120000,420Z" fill="rgb(232,185,60)" stroke="none" stroke-width="1"/><path id="artboard-1-path18" d="M416.750000,411.800000L416.750000,419.670000C423.030000,419.670000,428.870000,419.370000,432.750000,417.670000C435.450000,416.670000,434.750000,415.670000,432.240000,414.560000C427.216160,412.980477,422.010219,412.052886,416.750000,411.800000Z" fill="rgb(16,80,90)" stroke="none" stroke-width="1"/><path id="artboard-1-path19" d="M414.840000,400.350000C423.760000,398.110000,432.130000,396.190000,443.020000,396.580000C447.400000,396.510000,451.410000,396.860000,454.310000,398.730000C456.630000,399.820000,458.460000,402.100000,460.140000,404.730000Q431.370000,397.350000,414.840000,400.350000Z" fill="rgb(16,80,90)" stroke="none" stroke-width="1"/><path id="artboard-1-path20" d="M413.760000,430.110000C416.379720,431.284129,419.143950,432.104655,421.980000,432.550000C429.752755,433.862389,437.699875,433.743776,445.430000,432.200000C451.058741,431.194187,456.501260,429.336177,461.570000,426.690000C445.775281,429.322024,429.768536,430.467037,413.760000,430.110000Z" fill="rgb(16,80,90)" stroke="none" stroke-width="1"/><path id="artboard-1-path21" d="M493,416.080000C495.761842,414.560668,498.705366,413.398044,501.760000,412.620000C505.830000,411.150000,507.440000,411.560000,507.900000,412.840000C508.595025,416.092350,508.753784,419.436434,508.370000,422.740000C508.120000,424.960000,507.040000,425.340000,504.960000,424.450000C500.999741,423.076173,497.173737,421.342254,493.530000,419.270000C495.820000,418.270000,494.960000,416.760000,493,416.080000" fill="rgb(16,80,90)" stroke="none" stroke-width="1"/><circle id="artboard-1-circle1" r="7.630000" transform="matrix(1 0 0 1 398.83999999999997 416.73000000000002)" fill="rgb(255,255,255)" stroke="none" stroke-width="1"/><circle id="artboard-1-circle2" r="5.280000" transform="matrix(1 0 0 1 398.07999999999998 416.27999999999997)" fill="rgb(62,67,83)" stroke="rgb(35,31,32)" stroke-width="1" stroke-miterlimit="10"/></g><g id="artboard-1-layer-5"><line id="artboard-1-line1" x1="172.090000" y1="97.160000" x2="172.090000" y2="161.350000" fill="none" stroke="rgb(120,187,214)" stroke-width="3" stroke-miterlimit="10"/><line id="artboard-1-line2" x1="144.500000" y1="113" x2="199.690000" y2="145.610000" fill="none" stroke="rgb(120,187,214)" stroke-width="3" stroke-miterlimit="10"/><line id="artboard-1-line3" x1="144.500000" y1="144.930000" x2="199" y2="113" fill="none" stroke="rgb(120,187,214)" stroke-width="3" stroke-miterlimit="10"/><polyline id="artboard-1-polyline1" points="144.500000,124.060000 157.430000,120.640000 153.970000,108.330000" fill="none" stroke="rgb(120,187,214)" stroke-width="3" stroke-miterlimit="10"/><polyline id="artboard-1-polyline2" points="180.420000,103.660000 171.750000,113 162.740000,103.200000" fill="none" stroke="rgb(120,187,214)" stroke-width="3" stroke-miterlimit="10"/><polyline id="artboard-1-polyline3" points="199,124.060000 185.860000,120.700000 189.310000,108.330000" fill="none" stroke="rgb(120,187,214)" stroke-width="3" stroke-miterlimit="10"/><polyline id="artboard-1-polyline4" points="189.650000,150.290000 185.860000,137.440000 199,134.330000" fill="none" stroke="rgb(120,187,214)" stroke-width="3" stroke-miterlimit="10"/><polyline id="artboard-1-polyline5" points="162.170000,155.530000 172.090000,145.610000 180.420000,155.530000" fill="none" stroke="rgb(120,187,214)" stroke-width="3" stroke-miterlimit="10"/><polyline id="artboard-1-polyline6" points="144.500000,134.330000 157.430000,137.350000 153.970000,150.290000" fill="none" stroke="rgb(120,187,214)" stroke-width="3" stroke-miterlimit="10"/><line id="artboard-1-line4" x1="425.600000" y1="263.120000" x2="425.600000" y2="327.310000" fill="none" stroke="rgb(120,187,214)" stroke-width="3" stroke-miterlimit="10"/><line id="artboard-1-line5" x1="398.010000" y1="278.970000" x2="453.190000" y2="311.570000" fill="none" stroke="rgb(120,187,214)" stroke-width="3" stroke-miterlimit="10"/><line id="artboard-1-line6" x1="398.010000" y1="310.890000" x2="452.510000" y2="278.970000" fill="none" stroke="rgb(120,187,214)" stroke-width="3" stroke-miterlimit="10"/><polyline id="artboard-1-polyline7" points="398.010000,290.020000 410.940000,286.610000 407.470000,274.290000" fill="none" stroke="rgb(120,187,214)" stroke-width="3" stroke-miterlimit="10"/><polyline id="artboard-1-polyline8" points="433.930000,269.620000 425.260000,278.970000 416.250000,269.160000" fill="none" stroke="rgb(120,187,214)" stroke-width="3" stroke-miterlimit="10"/><polyline id="artboard-1-polyline9" points="452.510000,290.020000 439.370000,286.670000 442.820000,274.290000" fill="none" stroke="rgb(120,187,214)" stroke-width="3" stroke-miterlimit="10"/><polyline id="artboard-1-polyline10" points="443.160000,316.250000 439.370000,303.400000 452.510000,300.290000" fill="none" stroke="rgb(120,187,214)" stroke-width="3" stroke-miterlimit="10"/><polyline id="artboard-1-polyline11" points="415.680000,321.490000 425.600000,311.570000 433.930000,321.490000" fill="none" stroke="rgb(120,187,214)" stroke-width="3" stroke-miterlimit="10"/><polyline id="artboard-1-polyline12" points="398.010000,300.290000 410.940000,303.320000 407.470000,316.250000" fill="none" stroke="rgb(120,187,214)" stroke-width="3" stroke-miterlimit="10"/><g id="artboard-1-g1_to" transform="translate(398.404999,113.005005)"><g id="artboard-1-g1" transform="translate(-403.364990,-113.005005)"><line id="artboard-1-line7" x1="403.360000" y1="86.940000" x2="403.360000" y2="139.070000" fill="none" stroke="rgb(120,187,214)" stroke-width="3" stroke-miterlimit="10"/><line id="artboard-1-line8" x1="380.960000" y1="99.810000" x2="425.770000" y2="126.290000" fill="none" stroke="rgb(120,187,214)" stroke-width="3" stroke-miterlimit="10"/><line id="artboard-1-line9" x1="380.960000" y1="125.730000" x2="425.210000" y2="99.810000" fill="none" stroke="rgb(120,187,214)" stroke-width="3" stroke-miterlimit="10"/><polyline id="artboard-1-polyline13" points="380.960000,108.790000 391.460000,106.020000 388.640000,96.020000" fill="none" stroke="rgb(120,187,214)" stroke-width="3" stroke-miterlimit="10"/><polyline id="artboard-1-polyline14" points="410.120000,92.220000 403.090000,99.810000 395.770000,91.850000" fill="none" stroke="rgb(120,187,214)" stroke-width="3" stroke-miterlimit="10"/><polyline id="artboard-1-polyline15" points="425.210000,108.790000 414.540000,106.060000 417.340000,96.020000" fill="none" stroke="rgb(120,187,214)" stroke-width="3" stroke-miterlimit="10"/><polyline id="artboard-1-polyline16" points="417.620000,130.090000 414.540000,119.660000 425.210000,117.120000" fill="none" stroke="rgb(120,187,214)" stroke-width="3" stroke-miterlimit="10"/><polyline id="artboard-1-polyline17" points="395.310000,134.340000 403.360000,126.290000 410.120000,134.340000" fill="none" stroke="rgb(120,187,214)" stroke-width="3" stroke-miterlimit="10"/><polyline id="artboard-1-polyline18" points="380.960000,117.120000 391.460000,119.580000 388.640000,130.090000" fill="none" stroke="rgb(120,187,214)" stroke-width="3" stroke-miterlimit="10"/></g></g></g></svg>