<svg id="laptop" xmlns="http://www.w3.org/2000/svg" width="85" height="75.565" viewBox="0 0 85 75.565">
  <defs>
    <style>
      .cls-1 {
        fill: #5f99d7;
      }

      .cls-2 {
        fill: #3c87d0;
      }

      .cls-3 {
        fill: #dff6fd;
      }

      .cls-4 {
        fill: #c8effe;
      }

      .cls-5 {
        fill: #7bacdf;
      }

      .cls-6 {
        fill: #99e6fc;
      }

      .cls-7 {
        fill: #f37c7c;
      }

      .cls-8 {
        fill: #ee6161;
      }

      .cls-9 {
        fill: #f3f0f3;
      }
    </style>
  </defs>
  <path id="Path_860" data-name="Path 860" class="cls-1" d="M96.977,109.816a4.085,4.085,0,0,1,4.085,4.085v53.508H24.435V113.9a4.085,4.085,0,0,1,4.085-4.085Z" transform="translate(-20.249 -95.719)"/>
  <path id="Path_861" data-name="Path 861" class="cls-2" d="M40.018,109.816H28.52a4.085,4.085,0,0,0-4.085,4.085v53.508h11.5V113.9a4.085,4.085,0,0,1,4.085-4.085Z" transform="translate(-20.249 -95.719)"/>
  <path id="Path_862" data-name="Path 862" class="cls-2" d="M79.862,109.816H137.5V153.3H79.862Z" transform="translate(-66.179 -95.719)"/>
  <path id="Path_863" data-name="Path 863" class="cls-3" d="M120.782,140.482v43.411a.667.667,0,0,1-.667.667H55.1a.667.667,0,0,1-.667-.667V140.482a.667.667,0,0,1,.667-.667h65.014A.667.667,0,0,1,120.782,140.482Z" transform="translate(-45.108 -120.578)"/>
  <path id="Path_864" data-name="Path 864" class="cls-4" d="M60.792,139.816H55.1a.667.667,0,0,0-.667.667v43.41a.667.667,0,0,0,.667.667h5.691Z" transform="translate(-45.108 -120.579)"/>
  <g id="Group_240" data-name="Group 240">
    <path id="Path_865" data-name="Path 865" class="cls-5" d="M80.384,437.419H4.616A4.616,4.616,0,0,1,0,432.8v-1.072a.755.755,0,0,1,.756-.756H84.244a.755.755,0,0,1,.756.756V432.8A4.616,4.616,0,0,1,80.384,437.419Z" transform="translate(0 -361.855)"/>
    <path id="Path_866" data-name="Path 866" class="cls-1" d="M14.992,432.8v-1.072a.755.755,0,0,1,.756-.756H.756a.755.755,0,0,0-.756.756V432.8a4.616,4.616,0,0,0,4.616,4.616H19.608A4.616,4.616,0,0,1,14.992,432.8Z" transform="translate(0 -361.855)"/>
    <path id="Path_867" data-name="Path 867" class="cls-6" d="M79.862,139.816H137.5V184.56H79.862Z" transform="translate(-66.179 -120.579)"/>
    <path id="Path_868" data-name="Path 868" class="cls-3" d="M150.644,137.465V85.158a2.174,2.174,0,0,0-2.174-2.174H102.036a2.174,2.174,0,0,0-2.174,2.174v52.307h50.782Z" transform="translate(-82.753 -73.484)"/>
    <path id="Path_869" data-name="Path 869" class="cls-4" d="M155.869,97.023h2.972l2.034,2.034a5.284,5.284,0,0,0,7.472,0l2.034-2.034h2.972a8.521,8.521,0,0,0,8.511-8.511V82.984H147.358v5.528A8.521,8.521,0,0,0,155.869,97.023Z" transform="translate(-122.111 -73.484)"/>
    <path id="Path_870" data-name="Path 870" class="cls-7" d="M189.928,27.537H172.444a5.085,5.085,0,0,0-5.085,5.085v9.943a5.085,5.085,0,0,0,5.085,5.085h4.391l3.037,3.037a1.857,1.857,0,0,0,2.627,0l3.037-3.037h4.391a5.085,5.085,0,0,0,5.085-5.085V32.622a5.085,5.085,0,0,0-5.085-5.085Z" transform="translate(-138.686 -27.537)"/>
    <g id="Group_235" data-name="Group 235" transform="translate(28.673 0)">
      <path id="Path_871" data-name="Path 871" class="cls-8" d="M173.957,43.394V32.623a5.531,5.531,0,0,1,3.133-5.087h-4.646a5.085,5.085,0,0,0-5.085,5.085v9.943a5.085,5.085,0,0,0,5.085,5.085h3.367A5.685,5.685,0,0,1,173.957,43.394Z" transform="translate(-167.359 -27.536)"/>
    </g>
    <path id="Path_872" data-name="Path 872" class="cls-9" d="M217.02,70.239l4.709-4.709a3.481,3.481,0,0,0-4.923-4.923l-.592.592-.718-.69a3.482,3.482,0,0,0-4.874.049l-.049.049a3.482,3.482,0,0,0,0,4.923l4.709,4.709A1.228,1.228,0,0,0,217.02,70.239Z" transform="translate(-173.651 -54.055)"/>
    <circle id="Ellipse_97" data-name="Ellipse 97" class="cls-4" cx="8.175" cy="8.175" r="8.175" transform="translate(23.456 27.769)"/>
    <g id="Group_236" data-name="Group 236" transform="translate(44.359 34.66)">
      <path id="Path_873" data-name="Path 873" class="cls-4" d="M275.507,232.406H260.2a1.285,1.285,0,1,1,0-2.57h15.308a1.285,1.285,0,1,1,0,2.57Z" transform="translate(-258.914 -229.836)"/>
    </g>
    <g id="Group_237" data-name="Group 237" transform="translate(25.401 50.476)">
      <path id="Path_874" data-name="Path 874" class="cls-4" d="M151.532,324.723h-1.987a1.285,1.285,0,1,1,0-2.57h1.987a1.285,1.285,0,1,1,0,2.57Z" transform="translate(-148.26 -322.153)"/>
    </g>
    <g id="Group_238" data-name="Group 238" transform="translate(55.213 50.476)">
      <path id="Path_875" data-name="Path 875" class="cls-4" d="M325.538,324.723h-1.987a1.285,1.285,0,1,1,0-2.57h1.987a1.285,1.285,0,1,1,0,2.57Z" transform="translate(-322.266 -322.153)"/>
    </g>
    <g id="Group_239" data-name="Group 239" transform="translate(31.995 50.476)">
      <path id="Path_876" data-name="Path 876" class="cls-4" d="M206.4,324.723H188.033a1.285,1.285,0,0,1,0-2.57H206.4a1.285,1.285,0,0,1,0,2.57Z" transform="translate(-186.748 -322.153)"/>
    </g>
  </g>
  <path id="Path_877" data-name="Path 877" class="cls-4" d="M177.267,370.043v-5.41a.985.985,0,0,0-.985-.985H141.348a.985.985,0,0,0-.985.985v5.41Z" transform="translate(-116.315 -306.063)"/>
</svg>
