<svg id="Artboard_1" data-name="Artboard 1" xmlns="http://www.w3.org/2000/svg" width="135" height="49.544" viewBox="0 0 135 49.544">
  <defs>
    <style>
      .cls-1 {
        fill: #21401d;
      }

      .cls-2 {
        fill: #bf212e;
      }

      .cls-3 {
        fill: #f2a413;
      }
    </style>
  </defs>
  <path id="Path_1" data-name="Path 1" class="cls-1" d="M121.044,22.716a23.265,23.265,0,0,0-6.877-.958,22.03,22.03,0,0,0-10.749,2.567,18.139,18.139,0,0,0-7.3,7.216A21.744,21.744,0,0,0,93.52,42.29a21.632,21.632,0,0,0,2.595,10.749,18.111,18.111,0,0,0,7.3,7.212,23.789,23.789,0,0,0,21.5,0,18.139,18.139,0,0,0,7.3-7.212,21.688,21.688,0,0,0,2.595-10.749,21.688,21.688,0,0,0-2.595-10.749,18.447,18.447,0,0,0-2.926-3.943,8.887,8.887,0,0,0-.966-.864L125.4,30.677a16.373,16.373,0,0,1,2.05,2.894,18.953,18.953,0,0,1,2,8.7,18.1,18.1,0,0,1-1.94,8.612,13.36,13.36,0,0,1-5.39,5.56,17.535,17.535,0,0,1-15.911,0,13.17,13.17,0,0,1-5.359-5.56,18.319,18.319,0,0,1-1.912-8.612,18.379,18.379,0,0,1,1.869-8.565,13.127,13.127,0,0,1,5.233-5.544,15.378,15.378,0,0,1,7.78-1.972,18.927,18.927,0,0,1,4.507.521Z" transform="translate(-57.288 -13.278)"/>
  <rect id="Rectangle_1" data-name="Rectangle 1" class="cls-1" width="5.39" height="9.472" transform="translate(62.569 1.556) rotate(34.7)"/>
  <rect id="Rectangle_2" data-name="Rectangle 2" class="cls-1" width="7.658" height="4.164" transform="translate(60.883 0) rotate(34.7)"/>
  <rect id="Rectangle_3" data-name="Rectangle 3" class="cls-1" width="5.39" height="10.919" transform="translate(74.317 8.257) rotate(34.7)"/>
  <rect id="Rectangle_4" data-name="Rectangle 4" class="cls-1" width="7.535" height="4.267" transform="translate(74.313 8.269) rotate(34.7)"/>
  <path id="Path_2" data-name="Path 2" class="cls-2" d="M113.917,48.2c2.673-1.972,4.732-2.464,7.662-.891s2.851,3.742,4.1,4.811,4.874-.536,6.979,0,2.555,3.19,4.732,3.821,1.648,1.881,1.648,1.881-1.073,8.73-5.52,11.763c-5.075,3.45-11.94,3.383-17.819-1.427S111.244,50.168,113.917,48.2Z" transform="translate(-68.259 -28.187)"/>
  <path id="Path_3" data-name="Path 3" class="cls-1" d="M9.66,60.941a24.3,24.3,0,0,1-8.438-5.3A2.646,2.646,0,0,1,.37,53.717a3.348,3.348,0,0,1,1.136-2.366,2.76,2.76,0,0,1,1.972-.907,4.651,4.651,0,0,1,2.721,1.3,18.647,18.647,0,0,0,6.309,3.766,21.841,21.841,0,0,0,7.563,1.333A11.234,11.234,0,0,0,25.9,55.571a4,4,0,0,0,2.114-3.608,4.557,4.557,0,0,0-2.267-3.943q-2.267-1.506-7.705-2.685Q9.491,43.465,5.611,40.4a9.582,9.582,0,0,1-3.88-7.886,8.218,8.218,0,0,1,2.043-5.453,13.188,13.188,0,0,1,5.694-3.738,24.33,24.33,0,0,1,8.352-1.333A24.01,24.01,0,0,1,27.2,23.721a13.918,13.918,0,0,1,6.258,4.842,4.117,4.117,0,0,1,.737,2.043,3.155,3.155,0,0,1-1.416,2.429,2.9,2.9,0,0,1-1.7.513,3.592,3.592,0,0,1-2.89-1.36,11.041,11.041,0,0,0-4.389-3.1,15.5,15.5,0,0,0-5.978-1.136,13.229,13.229,0,0,0-6.258,1.218,3.735,3.735,0,0,0-2.24,3.371A4.118,4.118,0,0,0,11.5,36.1a25.921,25.921,0,0,0,7.563,2.634,46.542,46.542,0,0,1,9.574,3.178,13.3,13.3,0,0,1,5.3,4.219,10.051,10.051,0,0,1,1.672,5.836,8.983,8.983,0,0,1-1.924,5.69,12.177,12.177,0,0,1-5.442,3.8,22.945,22.945,0,0,1-8.155,1.333A29.274,29.274,0,0,1,9.66,60.941Z" transform="translate(-0.37 -13.42)"/>
  <path id="Path_4" data-name="Path 4" class="cls-3" d="M214.177,44.6a10.023,10.023,0,0,1-3.486-2.188,1.1,1.1,0,0,1-.351-.789,1.388,1.388,0,0,1,.469-.982,1.14,1.14,0,0,1,.82-.394,1.912,1.912,0,0,1,1.12.54,7.76,7.76,0,0,0,2.61,1.554,9.046,9.046,0,0,0,3.127.552,4.637,4.637,0,0,0,2.409-.528,1.644,1.644,0,0,0,.867-1.483,1.877,1.877,0,0,0-.935-1.629,10.087,10.087,0,0,0-3.182-1.112,12.659,12.659,0,0,1-5.126-2.035,3.943,3.943,0,0,1-1.6-3.253,3.4,3.4,0,0,1,.84-2.256,5.442,5.442,0,0,1,2.366-1.546,10.04,10.04,0,0,1,3.45-.548,9.886,9.886,0,0,1,3.872.714,5.729,5.729,0,0,1,2.559,2.011,1.7,1.7,0,0,1,.3.84,1.313,1.313,0,0,1-.588,1.009,1.207,1.207,0,0,1-.7.209,1.483,1.483,0,0,1-1.183-.56,4.539,4.539,0,0,0-1.814-1.289,6.427,6.427,0,0,0-2.468-.465,5.477,5.477,0,0,0-2.595.485,1.538,1.538,0,0,0-.923,1.392,1.692,1.692,0,0,0,.9,1.479,10.891,10.891,0,0,0,3.123,1.073A19.353,19.353,0,0,1,222,36.725a5.567,5.567,0,0,1,2.188,1.743,4.152,4.152,0,0,1,.69,2.413,3.7,3.7,0,0,1-.789,2.366,4.984,4.984,0,0,1-2.244,1.577,9.487,9.487,0,0,1-3.371.552A12.066,12.066,0,0,1,214.177,44.6Z" transform="translate(-128.422 -17.366)"/>
  <path id="Path_5" data-name="Path 5" class="cls-3" d="M256.708,44.4a6.928,6.928,0,0,1-2.973-2.9,9.283,9.283,0,0,1-1.029-4.476,9.369,9.369,0,0,1,1.029-4.507,6.987,6.987,0,0,1,2.961-2.922,9.625,9.625,0,0,1,4.55-1.017,10.679,10.679,0,0,1,4.026.745,6.073,6.073,0,0,1,2.737,1.972,1.278,1.278,0,0,1,.28.789,1.313,1.313,0,0,1-.631,1.053,1.159,1.159,0,0,1-.7.209,1.723,1.723,0,0,1-.7-.154,1.538,1.538,0,0,1-.588-.43,4.676,4.676,0,0,0-1.845-1.325,7.157,7.157,0,0,0-2.575-.394,5.093,5.093,0,0,0-3.979,1.577,6.329,6.329,0,0,0-1.427,4.4,6.23,6.23,0,0,0,1.439,4.373,5.2,5.2,0,0,0,4.014,1.577,6.4,6.4,0,0,0,4.7-1.731,2.066,2.066,0,0,1,1.337-.678,1.2,1.2,0,0,1,.789.28,1.258,1.258,0,0,1,.233,1.849,6.593,6.593,0,0,1-2.867,2.011,11.4,11.4,0,0,1-4.176.726A9.858,9.858,0,0,1,256.708,44.4Z" transform="translate(-154.269 -17.407)"/>
  <path id="Path_6" data-name="Path 6" class="cls-3" d="M301.389,45.007A1.305,1.305,0,0,1,301,43.978V29.94a1.321,1.321,0,0,1,.394-1.033,1.628,1.628,0,0,1,1.124-.371,1.692,1.692,0,0,1,1.124.371,1.285,1.285,0,0,1,.442,1.033V43.978a1.269,1.269,0,0,1-.442,1.029,1.7,1.7,0,0,1-1.124.394A1.632,1.632,0,0,1,301.389,45.007Z" transform="translate(-183.741 -17.384)"/>
  <path id="Path_7" data-name="Path 7" class="cls-1" d="M216.373,93.542a1.321,1.321,0,0,1-.422-1.033v-12.8h-4.515a1.64,1.64,0,0,1-1.065-.315,1.08,1.08,0,0,1-.394-.879,1.112,1.112,0,0,1,.375-.9,1.609,1.609,0,0,1,1.077-.315h12.145a1.6,1.6,0,0,1,1.073.315,1.1,1.1,0,0,1,.394.9,1.076,1.076,0,0,1-.394.879,1.656,1.656,0,0,1-1.065.315h-4.527v12.8a1.309,1.309,0,0,1-.43,1.021,1.66,1.66,0,0,1-1.136.394A1.632,1.632,0,0,1,216.373,93.542Z" transform="translate(-128.203 -46.92)"/>
  <path id="Path_8" data-name="Path 8" class="cls-1" d="M255.219,93.153a1.321,1.321,0,0,1-.422-1.033V78.082a1.305,1.305,0,0,1,.422-1.029,1.632,1.632,0,0,1,1.124-.394,1.684,1.684,0,0,1,1.12.394,1.262,1.262,0,0,1,.446,1.029V92.12a1.274,1.274,0,0,1-.446,1.033,1.684,1.684,0,0,1-1.12.394A1.632,1.632,0,0,1,255.219,93.153Z" transform="translate(-155.442 -46.531)"/>
  <path id="Path_9" data-name="Path 9" class="cls-1" d="M272.092,92.742a3.45,3.45,0,0,1-.982-2.622V80.762a3.375,3.375,0,0,1,.946-2.551,3.643,3.643,0,0,1,2.634-.911h7.275a1.609,1.609,0,0,1,1.076.315,1.112,1.112,0,0,1,.375.9,1.08,1.08,0,0,1-.394.879,1.64,1.64,0,0,1-1.065.315h-6.731a.931.931,0,0,0-.737.3,1.234,1.234,0,0,0-.268.84v3.253h5.966a1.629,1.629,0,0,1,1.077.315,1.124,1.124,0,0,1,.375.9,1.069,1.069,0,0,1-.394.875,1.617,1.617,0,0,1-1.065.315h-5.962v3.6a1.238,1.238,0,0,0,.268.844.942.942,0,0,0,.737.3H282.5a1.644,1.644,0,0,1,1.076.315,1.124,1.124,0,0,1,.375.9,1.068,1.068,0,0,1-.394.875,1.632,1.632,0,0,1-1.065.315h-7.638a3.84,3.84,0,0,1-2.76-.935Z" transform="translate(-165.638 -46.916)"/>
  <path id="Path_10" data-name="Path 10" class="cls-1" d="M312.943,92.786a10.118,10.118,0,0,1-3.482-2.173,1.1,1.1,0,0,1-.351-.789,1.388,1.388,0,0,1,.469-.982,1.148,1.148,0,0,1,.82-.394,1.944,1.944,0,0,1,1.124.536,7.65,7.65,0,0,0,2.606,1.577,9.046,9.046,0,0,0,3.123.552,4.661,4.661,0,0,0,2.413-.528,1.652,1.652,0,0,0,.864-1.487,1.877,1.877,0,0,0-.935-1.625,9.9,9.9,0,0,0-3.182-1.112,13.047,13.047,0,0,1-5.126-2.035,3.943,3.943,0,0,1-1.6-3.253,3.4,3.4,0,0,1,.82-2.291,5.47,5.47,0,0,1,2.366-1.542,10.954,10.954,0,0,1,7.323.162,5.784,5.784,0,0,1,2.587,2,1.719,1.719,0,0,1,.3.844,1.3,1.3,0,0,1-.611,1.013,1.183,1.183,0,0,1-.7.213,1.487,1.487,0,0,1-1.183-.564,4.57,4.57,0,0,0-1.814-1.286,6.416,6.416,0,0,0-2.468-.469,5.485,5.485,0,0,0-2.587.5,1.538,1.538,0,0,0-.923,1.392,1.7,1.7,0,0,0,.9,1.463,10.878,10.878,0,0,0,3.127,1.088,19.152,19.152,0,0,1,3.943,1.321,5.54,5.54,0,0,1,2.188,1.743,4.149,4.149,0,0,1,.7,2.409,3.73,3.73,0,0,1-.789,2.366,5.051,5.051,0,0,1-2.248,1.577,9.464,9.464,0,0,1-3.371.552A12.117,12.117,0,0,1,312.943,92.786Z" transform="translate(-188.658 -46.551)"/>
</svg>
