<svg xmlns="http://www.w3.org/2000/svg" xmlns:xlink="http://www.w3.org/1999/xlink" width="801.31" height="555.484" viewBox="0 0 801.31 555.484">
  <defs>
    <linearGradient id="linear-gradient" x1="0.5" x2="0.5" y2="1" gradientUnits="objectBoundingBox">
      <stop offset="0" stop-color="#e8f1db"/>
      <stop offset="0.532" stop-color="#dee7b9"/>
      <stop offset="1" stop-color="#c6d069"/>
    </linearGradient>
  </defs>
  <path id="Path_11" data-name="Path 11" d="M1942.154-7.843s-25.172,7.534-52.647,67.705c-15.19,39.2,8.092,73.391,4.47,109.66-2.183,21.868-6.735,41.12-17.922,50.663-24.062,20.526-86.4,45.738-104.093,73.067-30.061,46.422-4.633,85.331-30.061,106.593-21.648,18.1-80.424,21.55-101.916,38.809-32.119,25.792-40.554,78.148-57.814,84.961-11.377,4.492-27.817-.653-37.514-4.583a1.716,1.716,0,0,0-1.993,2.725c8.249,8.068,24.03,21.328,41.356,24.514,24.28,4.463,40.988-31.25,82.95-34.342,38.426-2.831,74.139,17.983,106.985,14.11,36.272-4.279,62.9-35.844,91.764-43.845,26.895-7.455,75.943,45.3,112.859,39.325,37.329-6.046,75.259-43.206,110.709-54.7,37.714-12.234,99.419-5.224,138.981-9.939,62.191-7.412,114.128-58.821,114.128-58.821V-7.843Z" transform="translate(-1541.586 8.343)" stroke="rgba(0,0,0,0)" stroke-width="1" fill="url(#linear-gradient)"/>
</svg>
