<svg id="pdf" xmlns="http://www.w3.org/2000/svg" width="66.997" height="76.568" viewBox="0 0 66.997 76.568">
  <defs>
    <style>
      .cls-1 {
        fill: #e2574c;
      }

      .cls-2 {
        fill: #b53629;
      }

      .cls-3 {
        fill: #fff;
      }
    </style>
  </defs>
  <path id="Path_52" data-name="Path 52" class="cls-1" d="M24.114,0h40.66L86.326,21.468V71.782a4.786,4.786,0,0,1-4.785,4.785H24.114a4.786,4.786,0,0,1-4.785-4.785v-67A4.786,4.786,0,0,1,24.114,0Z" transform="translate(-19.329)"/>
  <path id="Path_53" data-name="Path 53" class="cls-2" d="M224.422,21.68h-16.68a4.787,4.787,0,0,1-4.785-4.785V.193Z" transform="translate(-157.495 -0.145)"/>
  <path id="Path_54" data-name="Path 54" class="cls-3" d="M119.351,138.174a1.391,1.391,0,0,0,0-2.754h-4.565a1.426,1.426,0,0,0-1.39,1.555v11.22c0,1,.569,1.555,1.34,1.555s1.338-.555,1.338-1.555v-3.079h2.761a1.3,1.3,0,0,0,1.285-1.4,1.273,1.273,0,0,0-1.285-1.359h-2.761v-4.185Zm-15.431-2.754h-3.34a1.477,1.477,0,0,0-1.551,1.546V148.2a1.472,1.472,0,0,0,1.589,1.505h3.505c4.149,0,6.889-2.73,6.889-6.944C111.01,138.31,108.431,135.42,103.921,135.42Zm.16,11.519h-2.036v-8.748h1.835c2.778,0,3.986,1.864,3.986,4.436C107.866,145.034,106.679,146.939,104.081,146.939ZM91.844,135.42H88.535a1.392,1.392,0,0,0-1.457,1.555v11.22a1.41,1.41,0,1,0,2.8,0v-3.276h2.074a4.531,4.531,0,0,0,4.673-4.73A4.583,4.583,0,0,0,91.844,135.42Zm-.055,6.867H89.882v-4.233h1.907a2.126,2.126,0,0,1,0,4.233Z" transform="translate(-70.305 -101.893)"/>
</svg>
